<svg xmlns="http://www.w3.org/2000/svg" xmlns:xlink="http://www.w3.org/1999/xlink" version="1.1" x="0px" y="0px" viewBox="0 0 100 125" enable-background="new 0 0 100 100" xml:space="preserve"><rect x="26" y="32" fill="#000000" width="48" height="2"/><rect x="26" y="36" fill="#000000" width="48" height="2"/><path fill="#000000" d="M82,30h-2v-2H20v2h-2v40h2v2h60v-2h2V30z M80,30v40H70v-4h-2v-4H32v4h-2v4H20V30H80z M32,66h2v-2h32v2h2v4  H32V66z"/><path fill="#000000" d="M70,46v-2h-2v-2H32v2h-2v2h-2v8h2v2h2v2h36v-2h2v-2h2v-8H70z M40,52h-2v2h-4v-2h-2v-4h2v-2h4v2h2V52z M44,54  v-2h2v-4h-2v-2h12v2h-2v4h2v2H44z M68,52h-2v2h-4v-2l-2,0v-1v-3l2,0v-2l4,0v2h2V52z"/><text x="0" y="115" fill="#000000" font-size="5px" font-weight="bold" font-family="'Helvetica Neue', Helvetica, Arial-Unicode, Arial, Sans-serif">Created by Jamison Wieser</text><text x="0" y="120" fill="#000000" font-size="5px" font-weight="bold" font-family="'Helvetica Neue', Helvetica, Arial-Unicode, Arial, Sans-serif">from the Noun Project</text></svg>