<svg xmlns="http://www.w3.org/2000/svg" xmlns:xlink="http://www.w3.org/1999/xlink" version="1.1" x="0px" y="0px" viewBox="0 0 100 125" style="enable-background:new 0 0 100 100;" xml:space="preserve"><rect x="24" y="30" width="2" height="2"/><rect x="28" y="30" width="2" height="2"/><rect x="32" y="30" width="2" height="2"/><path d="M80,28v-2H20v2h-2v6v38h2v2h60v-2h2V34v-6H80z M20,28h60v6H20V28z M80,36v36H20V36H80z"/><path d="M72,44v-2h-2v-2h-8v12h12v-8H72z M64,50v-8h6v2h2v6H64z"/><path d="M72,60v-2h-2v-2h-8v12h12v-8H72z M64,66v-8h6v2h2v6H64z"/><path d="M54,44v-2h-2v-2h-8v12h12v-8H54z M46,50v-8h6v2h2v6H46z"/><path d="M54,60v-2h-2v-2h-8v12h12v-8H54z M46,66v-8h6v2h2v6H46z"/><path d="M36,44v-2h-2v-2h-8v12h12v-8H36z M28,50v-8h6v2h2v6H28z"/><path d="M36,60v-2h-2v-2h-8v12h12v-8H36z M28,66v-8h6v2h2v6H28z"/><text x="0" y="115" fill="#000000" font-size="5px" font-weight="bold" font-family="'Helvetica Neue', Helvetica, Arial-Unicode, Arial, Sans-serif">Created by Jamison Wieser</text><text x="0" y="120" fill="#000000" font-size="5px" font-weight="bold" font-family="'Helvetica Neue', Helvetica, Arial-Unicode, Arial, Sans-serif">from the Noun Project</text></svg>