<svg xmlns="http://www.w3.org/2000/svg" xmlns:xlink="http://www.w3.org/1999/xlink" version="1.1" x="0px" y="0px" viewBox="0 0 100 125" style="enable-background:new 0 0 100 100;" xml:space="preserve"><rect x="30" y="42" width="2" height="2"/><rect x="34" y="42" width="2" height="2"/><rect x="38" y="42" width="2" height="2"/><rect x="34" y="54" width="2" height="2"/><rect x="30" y="38" width="2" height="2"/><rect x="34" y="38" width="2" height="2"/><rect x="38" y="38" width="2" height="2"/><rect x="42" y="38" width="2" height="2"/><rect x="46" y="38" width="2" height="2"/><rect x="50" y="38" width="2" height="2"/><rect x="30" y="46" width="2" height="2"/><rect x="34" y="46" width="2" height="2"/><rect x="34" y="50" width="2" height="2"/><rect x="30" y="54" width="2" height="2"/><rect x="34" y="58" width="2" height="2"/><rect x="38" y="54" width="2" height="2"/><rect x="38" y="58" width="2" height="2"/><rect x="30" y="58" width="2" height="2"/><rect x="30" y="50" width="2" height="2"/><rect x="42" y="42" width="2" height="2"/><path d="M82,62L82,62h-4V32h-2v30h-2V36h-2v-2H28v2h-2v26h-2V32h52v-2H24v2h-2v30h-4v6h2v2h2v2h56v-2H22v-2h-2v-4h24v2  h2v2h8v-2h-8v-2h8v2h2v-2h24v4h-2v2h2v-2h2V62L82,62z M54,62h-8H28V36h44v26H54z"/><text x="0" y="115" fill="#000000" font-size="5px" font-weight="bold" font-family="'Helvetica Neue', Helvetica, Arial-Unicode, Arial, Sans-serif">Created by Jamison Wieser</text><text x="0" y="120" fill="#000000" font-size="5px" font-weight="bold" font-family="'Helvetica Neue', Helvetica, Arial-Unicode, Arial, Sans-serif">from the Noun Project</text></svg>